<?xml version="1.0" standalone="no"?>
<!DOCTYPE svg PUBLIC "-//W3C//DTD SVG 20010904//EN"
 "http://www.w3.org/TR/2001/REC-SVG-20010904/DTD/svg10.dtd">
<svg version="1.0" xmlns="http://www.w3.org/2000/svg"
 width="840.000000pt" height="981.000000pt" viewBox="0 0 840.000000 981.000000"
 preserveAspectRatio="xMidYMid meet">
<metadata>
Created by potrace 1.15, written by Peter Selinger 2001-2017
</metadata>
<g transform="translate(0.000000,981.000000) scale(0.100000,-0.100000)"
fill="#000000" stroke="none">
<path d="M2450 9150 l0 -250 -500 0 -500 0 0 -250 0 -250 -250 0 -250 0 0
-500 0 -500 -250 0 -250 0 0 -1000 0 -1000 250 0 250 0 0 -250 0 -250 250 0
250 0 0 -500 0 -500 250 0 250 0 0 -750 0 -750 -250 0 -250 0 0 -250 0 -250
250 0 250 0 0 -250 0 -250 750 0 750 0 0 -250 0 -250 250 0 250 0 0 -250 0
-250 500 0 500 0 0 250 0 250 250 0 250 0 0 250 0 250 250 0 250 0 0 250 0
250 250 0 250 0 0 250 0 250 250 0 250 0 0 250 0 250 250 0 250 0 0 500 0 500
250 0 250 0 0 500 0 500 -500 0 -500 0 0 -250 0 -250 -250 0 -250 0 0 250 0
250 -250 0 -250 0 0 250 0 250 250 0 250 0 0 1250 0 1250 -250 0 -250 0 0 250
0 250 -250 0 -250 0 0 250 0 250 -500 0 -500 0 0 250 0 250 -1000 0 -1000 0 0
-250z m2000 -500 l0 -250 500 0 500 0 0 -250 0 -250 250 0 250 0 0 -1250 0
-1250 -250 0 -250 0 0 -250 0 -250 250 0 250 0 0 -250 0 -250 250 0 250 0 0
-250 0 -250 250 0 250 0 0 250 0 250 250 0 250 0 0 -250 0 -250 -250 0 -250 0
0 -500 0 -500 -250 0 -250 0 0 250 0 250 -250 0 -250 0 0 -750 0 -750 -500 0
-500 0 0 250 0 250 -250 0 -250 0 0 -250 0 -250 -1250 0 -1250 0 0 250 0 250
250 0 250 0 0 500 0 500 250 0 250 0 0 250 0 250 750 0 750 0 0 -250 0 -250
750 0 750 0 0 250 0 250 -500 0 -500 0 0 250 0 250 -1250 0 -1250 0 0 -250 0
-250 -250 0 -250 0 0 250 0 250 250 0 250 0 0 250 0 250 -500 0 -500 0 0 250
0 250 -250 0 -250 0 0 1000 0 1000 250 0 250 0 0 500 0 500 500 0 500 0 0 250
0 250 1000 0 1000 0 0 -250z m500 -7500 l0 -250 -500 0 -500 0 0 250 0 250
500 0 500 0 0 -250z"/>
<path d="M3450 5400 l0 -500 250 0 250 0 0 500 0 500 -250 0 -250 0 0 -500z"/>
<path d="M4950 4650 l0 -250 250 0 250 0 0 250 0 250 -250 0 -250 0 0 -250z"/>
<path d="M2950 3150 l0 -250 500 0 500 0 0 -250 0 -250 250 0 250 0 0 500 0
500 -750 0 -750 0 0 -250z"/>
</g>
</svg>
