<svg id="svg" xmlns="http://www.w3.org/2000/svg" xmlns:xlink="http://www.w3.org/1999/xlink" width="400" height="467.1428571428571" viewBox="0, 0, 400,467.1428571428571"><g id="svgg"><path id="path0" d="M117.306 43.526 C 116.937 43.760,116.786 46.767,116.706 55.420 L 116.600 67.000 93.000 67.200 L 69.400 67.400 69.200 91.000 L 69.000 114.600 57.400 114.800 L 45.800 115.000 45.501 149.977 C 45.263 177.752,45.304 185.024,45.701 185.297 C 45.976 185.487,56.535 185.520,69.222 185.371 C 90.545 185.121,92.294 185.151,92.922 185.779 C 93.528 186.385,93.600 187.673,93.600 197.835 L 93.600 209.212 105.100 209.106 L 116.600 209.000 116.706 197.506 L 116.812 186.012 128.506 185.906 L 140.200 185.800 140.306 174.100 L 140.412 162.400 151.777 162.400 C 161.664 162.400,163.226 162.317,163.783 161.760 C 164.339 161.204,164.420 159.720,164.400 150.460 C 164.386 144.597,164.381 139.485,164.388 139.100 C 164.398 138.489,235.171 137.894,235.685 138.500 C 235.731 138.555,235.866 143.910,235.985 150.400 L 236.200 162.200 247.367 162.306 C 254.789 162.377,258.712 162.561,259.067 162.855 C 259.500 163.215,259.600 167.611,259.600 186.235 C 259.600 208.503,259.623 209.184,260.374 209.586 C 261.204 210.030,281.449 210.186,282.567 209.757 C 283.538 209.385,283.538 91.415,282.567 91.043 C 282.219 90.909,276.909 90.800,270.767 90.800 L 259.600 90.800 259.600 79.633 C 259.600 73.491,259.491 68.181,259.357 67.833 C 259.140 67.266,256.669 67.200,235.557 67.200 L 212.000 67.200 212.000 55.680 C 212.000 47.253,211.871 44.031,211.520 43.680 C 210.966 43.126,118.176 42.974,117.306 43.526 M260.106 233.922 C 259.737 234.159,259.586 237.169,259.506 245.820 L 259.400 257.400 247.820 257.506 C 239.167 257.586,236.160 257.737,235.926 258.106 C 235.445 258.864,235.526 279.515,236.014 280.426 C 236.416 281.178,237.102 281.200,259.814 281.200 L 283.200 281.200 283.200 292.776 C 283.200 300.618,283.339 304.439,283.631 304.619 C 283.868 304.766,288.904 304.882,294.821 304.878 C 300.739 304.873,305.942 304.964,306.384 305.080 C 307.163 305.284,307.191 305.653,307.294 316.945 L 307.400 328.600 319.000 328.600 L 330.600 328.600 330.703 304.906 L 330.806 281.212 342.703 281.106 L 354.600 281.000 354.600 269.400 L 354.600 257.800 342.900 257.694 L 331.200 257.588 331.155 265.894 C 331.130 270.462,331.085 275.730,331.055 277.600 L 331.000 281.000 319.106 281.106 L 307.212 281.212 307.106 269.506 L 307.000 257.800 295.200 257.600 L 283.400 257.400 283.200 245.600 L 283.000 233.800 271.800 233.703 C 265.640 233.649,260.378 233.748,260.106 233.922 M93.043 258.233 C 92.726 259.058,92.726 279.742,93.043 280.567 C 93.360 281.393,115.502 281.538,116.320 280.720 C 116.828 280.212,117.046 259.507,116.557 258.233 C 116.189 257.273,93.411 257.273,93.043 258.233 M140.880 281.680 C 140.002 282.558,140.213 304.796,141.100 304.817 C 142.107 304.840,210.462 304.844,211.300 304.820 C 212.187 304.795,212.398 282.558,211.520 281.680 C 210.824 280.984,141.576 280.984,140.880 281.680 M116.922 305.859 C 116.617 306.654,117.112 375.534,117.426 376.043 C 117.788 376.628,210.934 376.506,211.520 375.920 C 211.871 375.569,212.000 372.392,212.000 364.126 L 212.000 352.812 200.100 352.706 L 188.200 352.600 188.097 341.200 C 188.005 330.938,187.925 329.749,187.303 329.287 C 186.761 328.885,182.019 328.780,165.206 328.801 C 153.433 328.815,143.035 328.820,142.100 328.813 L 140.400 328.800 140.400 317.000 L 140.400 305.200 128.787 305.200 C 118.373 305.200,117.149 305.268,116.922 305.859 M212.000 328.800 L 212.000 352.400 223.520 352.400 C 231.947 352.400,235.169 352.529,235.520 352.880 C 235.871 353.231,236.000 356.407,236.000 364.672 L 236.000 375.985 236.900 376.203 C 237.395 376.323,247.970 376.371,260.400 376.311 L 283.000 376.200 283.102 340.700 L 283.204 305.200 247.602 305.200 L 212.000 305.200 212.000 328.800 " stroke="none" fill="#83b2fb" fill-rule="evenodd"></path><path id="path1" d="M116.800 31.400 L 116.800 43.200 164.400 43.200 L 212.000 43.200 212.000 55.200 L 212.000 67.200 235.800 67.200 L 259.600 67.200 259.600 79.000 L 259.600 90.800 271.400 90.800 L 283.200 90.800 283.200 79.000 L 283.200 67.200 271.406 67.200 L 259.612 67.200 259.506 55.300 L 259.400 43.400 235.700 43.297 L 212.000 43.194 212.000 31.397 L 212.000 19.600 164.400 19.600 L 116.800 19.600 116.800 31.400 M69.200 55.197 L 69.200 67.200 57.200 67.200 L 45.200 67.200 45.200 91.000 L 45.200 114.800 33.400 114.800 L 21.600 114.800 21.600 162.146 L 21.600 209.493 27.805 209.781 C 31.217 209.940,36.138 209.943,38.740 209.787 C 45.938 209.358,45.200 207.983,45.200 221.827 L 45.200 233.600 57.200 233.600 L 69.200 233.600 69.200 257.400 L 69.200 281.200 81.000 281.200 L 92.800 281.200 92.800 317.000 L 92.800 352.800 81.000 352.800 L 69.200 352.800 69.200 364.600 L 69.200 376.400 81.000 376.400 L 92.800 376.400 92.800 388.198 L 92.800 399.996 128.500 400.098 L 164.200 400.200 164.306 412.100 L 164.412 424.000 176.206 424.000 L 188.000 424.000 188.000 435.800 L 188.000 447.600 211.800 447.600 L 235.600 447.600 235.600 435.800 L 235.600 424.000 247.600 424.000 L 259.600 424.000 259.600 412.000 L 259.600 400.000 271.400 400.000 L 283.200 400.000 283.200 388.200 L 283.200 376.400 295.200 376.400 L 307.200 376.400 307.200 364.400 L 307.200 352.400 319.000 352.400 L 330.800 352.400 330.800 340.600 L 330.800 328.800 342.800 328.800 L 354.800 328.800 354.800 305.000 L 354.800 281.200 366.600 281.200 L 378.400 281.200 378.400 257.400 L 378.400 233.600 354.800 233.600 L 331.200 233.600 331.200 245.600 L 331.200 257.600 343.000 257.600 L 354.800 257.600 354.800 269.400 L 354.800 281.200 342.800 281.200 L 330.800 281.200 330.800 269.400 L 330.800 257.600 319.006 257.600 L 307.212 257.600 307.106 245.700 L 307.000 233.800 295.100 233.694 L 283.200 233.588 283.200 221.794 L 283.200 210.000 271.400 210.000 L 259.600 210.000 259.600 221.794 L 259.600 233.588 247.700 233.694 L 235.800 233.800 235.694 245.700 L 235.588 257.600 176.194 257.600 L 116.800 257.600 116.800 245.600 L 116.800 233.600 93.000 233.600 L 69.200 233.600 69.200 221.800 L 69.200 210.000 57.200 210.000 L 45.200 210.000 45.200 162.406 L 45.200 114.812 57.100 114.706 L 69.000 114.600 69.103 90.903 L 69.206 67.206 92.903 67.103 L 116.600 67.000 116.600 55.200 L 116.600 43.400 92.900 43.297 L 69.200 43.194 69.200 55.197 M283.387 91.294 C 283.281 91.572,283.241 118.319,283.297 150.732 L 283.400 209.663 293.200 209.830 C 298.590 209.921,303.946 209.886,305.101 209.752 L 307.203 209.507 307.101 150.254 L 307.000 91.000 295.290 90.894 C 286.137 90.811,283.537 90.898,283.387 91.294 M164.400 209.800 L 164.400 233.600 176.200 233.600 L 188.000 233.600 188.000 209.800 L 188.000 186.000 176.200 186.000 L 164.400 186.000 164.400 209.800 M283.294 245.500 L 283.400 257.400 295.300 257.506 L 307.200 257.612 307.200 269.406 L 307.200 281.200 319.000 281.200 L 330.800 281.200 330.800 305.000 L 330.800 328.800 319.000 328.800 L 307.200 328.800 307.200 317.000 L 307.200 305.200 295.200 305.200 L 283.200 305.200 283.200 340.800 L 283.200 376.400 259.400 376.400 L 235.600 376.400 235.600 364.600 L 235.600 352.800 223.800 352.800 L 212.000 352.800 212.000 364.600 L 212.000 376.400 152.400 376.400 L 92.800 376.400 92.800 364.606 L 92.800 352.812 104.700 352.706 L 116.600 352.600 116.703 328.900 L 116.806 305.200 128.603 305.200 L 140.400 305.200 140.400 293.200 L 140.400 281.200 176.200 281.200 L 212.000 281.200 212.000 293.200 L 212.000 305.200 247.600 305.200 L 283.200 305.200 283.200 293.200 L 283.200 281.200 259.400 281.200 L 235.600 281.200 235.600 269.406 L 235.600 257.612 247.500 257.506 L 259.400 257.400 259.506 245.500 L 259.612 233.600 271.400 233.600 L 283.188 233.600 283.294 245.500 M116.800 269.400 L 116.800 281.200 104.800 281.200 L 92.800 281.200 92.800 269.400 L 92.800 257.600 104.800 257.600 L 116.800 257.600 116.800 269.400 M140.400 317.000 L 140.400 328.800 164.194 328.800 L 187.988 328.800 188.094 340.700 L 188.200 352.600 200.100 352.706 L 212.000 352.812 212.000 329.006 L 212.000 305.200 176.200 305.200 L 140.400 305.200 140.400 317.000 M235.600 412.200 L 235.600 424.000 211.800 424.000 L 188.000 424.000 188.000 412.200 L 188.000 400.400 211.800 400.400 L 235.600 400.400 235.600 412.200 " stroke="none" fill="#040404" fill-rule="evenodd"></path><path id="path2" d="M0.000 233.400 L 0.000 466.800 200.000 466.800 L 400.000 466.800 400.000 233.400 L 400.000 0.000 200.000 0.000 L 0.000 0.000 0.000 233.400 M212.000 31.200 L 212.000 43.200 235.800 43.200 L 259.600 43.200 259.600 54.994 L 259.600 66.788 271.500 66.894 L 283.400 67.000 283.506 78.900 L 283.612 90.800 295.406 90.800 L 307.200 90.800 307.200 150.400 L 307.200 210.000 295.400 210.000 L 283.600 210.000 283.600 221.800 L 283.600 233.600 295.400 233.600 L 307.200 233.600 307.200 245.400 L 307.200 257.200 319.000 257.200 L 330.800 257.200 330.800 245.400 L 330.800 233.600 354.803 233.600 L 378.806 233.600 378.703 257.500 L 378.600 281.400 366.700 281.506 L 354.800 281.612 354.800 305.406 L 354.800 329.200 343.000 329.200 L 331.200 329.200 331.200 341.000 L 331.200 352.800 319.206 352.800 L 307.212 352.800 307.106 364.655 L 307.000 376.511 295.300 376.555 L 283.600 376.600 283.600 388.500 L 283.600 400.400 271.606 400.400 L 259.612 400.400 259.506 412.255 L 259.400 424.111 247.700 424.155 L 236.000 424.200 236.000 436.100 L 236.000 448.000 212.000 448.000 L 188.000 448.000 188.000 436.243 L 188.000 424.486 181.100 424.237 C 177.305 424.099,171.950 424.035,169.200 424.094 L 164.200 424.200 164.094 412.300 L 163.988 400.400 128.400 400.400 L 92.812 400.400 92.706 388.500 L 92.600 376.600 88.400 376.673 C 86.090 376.713,80.735 376.648,76.500 376.529 L 68.800 376.313 68.800 364.356 L 68.800 352.400 80.800 352.400 L 92.800 352.400 92.800 317.006 L 92.800 281.612 80.900 281.506 L 69.000 281.400 68.897 257.700 L 68.794 234.000 56.997 234.000 L 45.200 234.000 45.200 222.000 L 45.200 210.000 33.198 210.000 L 21.197 210.000 21.298 162.300 L 21.400 114.600 33.300 114.494 L 45.200 114.388 45.200 90.594 L 45.200 66.800 57.000 66.800 L 68.800 66.800 68.800 55.000 L 68.800 43.200 92.600 43.200 L 116.400 43.200 116.400 31.467 C 116.400 25.013,116.520 19.613,116.667 19.467 C 116.813 19.320,138.323 19.200,164.467 19.200 L 212.000 19.200 212.000 31.200 M164.306 150.300 L 164.200 162.200 152.300 162.306 L 140.400 162.412 140.400 174.206 L 140.400 186.000 128.600 186.000 L 116.800 186.000 116.800 209.800 L 116.800 233.600 140.400 233.600 L 164.000 233.600 164.000 209.800 L 164.000 186.000 176.200 186.000 L 188.400 186.000 188.400 209.800 L 188.400 233.600 200.200 233.600 L 212.000 233.600 212.000 221.800 L 212.000 210.000 223.794 210.000 L 235.587 210.000 235.694 186.500 C 235.752 173.575,235.750 157.465,235.689 150.700 L 235.577 138.400 199.995 138.400 L 164.412 138.400 164.306 150.300 " stroke="none" fill="#f4f4f4" fill-rule="evenodd"></path><path id="path3" d="M45.700 186.665 C 45.316 186.820,45.200 189.554,45.200 198.433 L 45.200 210.000 57.200 210.000 L 69.200 210.000 69.200 221.800 L 69.200 233.600 92.806 233.600 L 116.412 233.600 116.306 221.900 L 116.200 210.200 104.600 210.000 L 93.000 209.800 92.785 198.200 C 92.666 191.820,92.531 186.555,92.485 186.500 C 92.319 186.304,46.191 186.467,45.700 186.665 M92.800 364.594 L 92.800 376.400 104.606 376.400 L 116.412 376.400 116.306 364.700 L 116.200 353.000 104.500 352.894 L 92.800 352.788 92.800 364.594 M188.000 412.200 L 188.000 424.000 211.800 424.000 L 235.600 424.000 235.600 412.200 L 235.600 400.400 211.800 400.400 L 188.000 400.400 188.000 412.200 " stroke="none" fill="#fbaa05" fill-rule="evenodd"></path><path id="path4" d="M116.667 19.467 C 115.959 20.174,116.380 43.601,117.100 43.568 C 117.518 43.550,117.599 43.456,117.300 43.335 C 116.916 43.180,116.800 40.406,116.800 31.368 L 116.800 19.603 164.500 19.500 L 212.200 19.397 164.567 19.298 C 138.368 19.244,116.813 19.320,116.667 19.467 M68.885 54.894 L 68.800 66.788 56.900 66.894 L 45.000 67.001 57.200 67.200 L 69.400 67.400 69.298 59.400 C 69.107 44.464,68.970 42.967,68.885 54.894 M259.387 67.221 C 259.240 67.459,259.228 67.761,259.360 67.893 C 259.492 68.025,259.600 67.923,259.600 67.667 C 259.600 67.322,262.676 67.200,271.400 67.200 L 283.200 67.200 283.200 78.967 C 283.200 88.006,283.084 90.780,282.700 90.935 C 282.403 91.055,282.487 91.150,282.906 91.168 C 283.568 91.198,283.605 90.445,283.506 79.100 L 283.400 67.000 271.527 66.894 C 263.341 66.821,259.572 66.922,259.387 67.221 M21.467 114.667 C 21.320 114.813,21.200 136.323,21.200 162.467 L 21.200 210.000 24.900 209.918 L 28.600 209.835 25.100 209.702 L 21.600 209.569 21.600 162.184 L 21.600 114.800 33.400 114.800 L 45.200 114.800 45.295 138.500 L 45.390 162.200 45.595 138.600 C 45.730 123.091,45.663 114.899,45.400 114.706 C 44.901 114.339,21.832 114.301,21.467 114.667 M235.700 151.200 C 235.663 157.690,235.626 173.575,235.616 186.500 L 235.600 210.000 223.800 210.000 L 212.000 210.000 212.000 221.800 L 212.000 233.600 200.203 233.600 L 188.406 233.600 188.300 209.700 L 188.194 185.800 188.097 209.700 L 188.000 233.600 176.203 233.600 L 164.406 233.600 164.300 209.700 L 164.194 185.800 164.097 209.700 L 164.000 233.600 140.400 233.600 L 116.800 233.600 116.800 221.300 L 116.800 209.000 105.200 209.112 L 93.600 209.224 93.600 197.840 C 93.600 187.750,93.524 186.381,92.933 185.791 C 91.968 184.825,45.204 185.031,45.201 186.000 C 45.200 186.528,48.040 186.587,68.800 186.491 C 81.780 186.431,92.438 186.431,92.485 186.491 C 92.531 186.551,92.666 191.820,92.785 198.200 L 93.000 209.800 104.600 210.000 L 116.200 210.200 116.503 226.600 C 116.669 235.620,116.759 246.467,116.703 250.705 C 116.646 254.942,116.660 258.227,116.733 258.005 C 116.918 257.445,235.481 257.442,235.667 258.002 C 235.740 258.223,235.800 252.868,235.800 246.102 L 235.800 233.800 248.102 233.800 C 254.868 233.800,260.223 233.740,260.002 233.667 C 259.188 233.397,259.482 210.002,260.300 209.988 C 260.967 209.976,260.967 209.956,260.300 209.568 C 259.646 209.187,259.600 207.646,259.600 186.229 C 259.600 167.610,259.500 163.215,259.067 162.855 C 258.712 162.561,254.789 162.377,247.367 162.306 L 236.200 162.200 235.983 150.800 L 235.767 139.400 235.700 151.200 M39.911 209.893 C 40.851 209.978,42.291 209.977,43.111 209.891 C 43.930 209.805,43.160 209.736,41.400 209.737 C 39.640 209.739,38.970 209.809,39.911 209.893 M282.712 209.937 C 283.113 210.192,283.200 212.821,283.112 222.093 C 283.050 228.600,283.135 233.841,283.300 233.739 C 284.033 233.285,283.640 209.600,282.900 209.606 C 282.387 209.611,282.337 209.699,282.712 209.937 M288.316 209.897 C 289.699 209.975,291.859 209.974,293.116 209.895 C 294.372 209.816,293.240 209.752,290.600 209.753 C 287.960 209.753,286.932 209.818,288.316 209.897 M305.300 209.876 C 305.685 209.976,306.315 209.976,306.700 209.876 C 307.085 209.775,306.770 209.693,306.000 209.693 C 305.230 209.693,304.915 209.775,305.300 209.876 M56.897 233.900 L 68.794 234.012 68.897 257.706 L 69.000 281.400 80.967 281.400 C 90.344 281.400,92.956 281.290,93.037 280.890 C 93.093 280.610,93.048 280.565,92.937 280.790 C 92.805 281.056,88.604 281.200,80.967 281.200 L 69.200 281.200 69.200 257.400 L 69.200 233.600 57.100 233.694 L 45.000 233.788 56.897 233.900 M330.800 245.400 L 330.800 257.200 319.024 257.200 C 312.547 257.200,307.164 257.335,307.061 257.500 C 306.959 257.665,312.255 257.750,318.830 257.689 L 330.784 257.577 330.900 265.889 C 330.965 270.460,331.058 265.065,331.109 253.900 C 331.159 242.735,331.110 233.600,331.000 233.600 C 330.890 233.600,330.800 238.910,330.800 245.400 M378.497 257.311 L 378.400 281.223 366.438 281.111 C 359.859 281.050,354.559 281.135,354.661 281.300 C 355.006 281.857,378.402 281.661,378.616 281.100 C 378.722 280.825,378.759 269.980,378.701 257.000 L 378.593 233.400 378.497 257.311 M330.934 278.000 C 330.934 279.650,331.005 280.325,331.091 279.500 C 331.178 278.675,331.178 277.325,331.091 276.500 C 331.005 275.675,330.934 276.350,330.934 278.000 M142.900 305.076 C 143.285 305.176,143.915 305.176,144.300 305.076 C 144.685 304.975,144.370 304.893,143.600 304.893 C 142.830 304.893,142.515 304.975,142.900 305.076 M146.307 305.090 C 147.026 305.179,148.106 305.177,148.707 305.086 C 149.308 304.995,148.720 304.922,147.400 304.924 C 146.080 304.926,145.588 305.001,146.307 305.090 M150.500 305.076 C 150.885 305.176,151.515 305.176,151.900 305.076 C 152.285 304.975,151.970 304.893,151.200 304.893 C 150.430 304.893,150.115 304.975,150.500 305.076 M153.907 305.090 C 154.626 305.179,155.706 305.177,156.307 305.086 C 156.908 304.995,156.320 304.922,155.000 304.924 C 153.680 304.926,153.188 305.001,153.907 305.090 M158.707 305.090 C 159.426 305.179,160.506 305.177,161.107 305.086 C 161.708 304.995,161.120 304.922,159.800 304.924 C 158.480 304.926,157.988 305.001,158.707 305.090 M162.900 305.076 C 163.285 305.176,163.915 305.176,164.300 305.076 C 164.685 304.975,164.370 304.893,163.600 304.893 C 162.830 304.893,162.515 304.975,162.900 305.076 M166.307 305.090 C 167.026 305.179,168.106 305.177,168.707 305.086 C 169.308 304.995,168.720 304.922,167.400 304.924 C 166.080 304.926,165.588 305.001,166.307 305.090 M170.500 305.076 C 170.885 305.176,171.515 305.176,171.900 305.076 C 172.285 304.975,171.970 304.893,171.200 304.893 C 170.430 304.893,170.115 304.975,170.500 305.076 M173.907 305.090 C 174.626 305.179,175.706 305.177,176.307 305.086 C 176.908 304.995,176.320 304.922,175.000 304.924 C 173.680 304.926,173.188 305.001,173.907 305.090 M178.707 305.090 C 179.426 305.179,180.506 305.177,181.107 305.086 C 181.708 304.995,181.120 304.922,179.800 304.924 C 178.480 304.926,177.988 305.001,178.707 305.090 M182.900 305.076 C 183.285 305.176,183.915 305.176,184.300 305.076 C 184.685 304.975,184.370 304.893,183.600 304.893 C 182.830 304.893,182.515 304.975,182.900 305.076 M186.307 305.090 C 187.026 305.179,188.106 305.177,188.707 305.086 C 189.308 304.995,188.720 304.922,187.400 304.924 C 186.080 304.926,185.588 305.001,186.307 305.090 M190.500 305.076 C 190.885 305.176,191.515 305.176,191.900 305.076 C 192.285 304.975,191.970 304.893,191.200 304.893 C 190.430 304.893,190.115 304.975,190.500 305.076 M193.907 305.090 C 194.626 305.179,195.706 305.177,196.307 305.086 C 196.908 304.995,196.320 304.922,195.000 304.924 C 193.680 304.926,193.188 305.001,193.907 305.090 M198.707 305.090 C 199.426 305.179,200.506 305.177,201.107 305.086 C 201.708 304.995,201.120 304.922,199.800 304.924 C 198.480 304.926,197.988 305.001,198.707 305.090 M202.900 305.076 C 203.285 305.176,203.915 305.176,204.300 305.076 C 204.685 304.975,204.370 304.893,203.600 304.893 C 202.830 304.893,202.515 304.975,202.900 305.076 M206.307 305.090 C 207.026 305.179,208.106 305.177,208.707 305.086 C 209.308 304.995,208.720 304.922,207.400 304.924 C 206.080 304.926,205.588 305.001,206.307 305.090 M286.307 305.090 C 287.026 305.179,288.106 305.177,288.707 305.086 C 289.308 304.995,288.720 304.922,287.400 304.924 C 286.080 304.926,285.588 305.001,286.307 305.090 M290.500 305.076 C 290.885 305.176,291.515 305.176,291.900 305.076 C 292.285 304.975,291.970 304.893,291.200 304.893 C 290.430 304.893,290.115 304.975,290.500 305.076 M293.907 305.090 C 294.626 305.179,295.706 305.177,296.307 305.086 C 296.908 304.995,296.320 304.922,295.000 304.924 C 293.680 304.926,293.188 305.001,293.907 305.090 M298.707 305.090 C 299.426 305.179,300.506 305.177,301.107 305.086 C 301.708 304.995,301.120 304.922,299.800 304.924 C 298.480 304.926,297.988 305.001,298.707 305.090 M302.900 305.076 C 303.285 305.176,303.915 305.176,304.300 305.076 C 304.685 304.975,304.370 304.893,303.600 304.893 C 302.830 304.893,302.515 304.975,302.900 305.076 M330.711 340.494 L 330.823 352.388 318.911 352.500 L 307.000 352.612 319.100 352.706 L 331.200 352.800 331.200 341.006 L 331.200 329.212 343.100 329.106 L 355.000 328.999 342.800 328.800 L 330.600 328.600 330.711 340.494 M116.677 352.299 C 116.358 352.793,116.270 376.003,116.586 376.320 C 117.262 376.995,117.376 374.714,117.200 364.000 C 117.090 357.290,116.855 352.025,116.677 352.299 M68.894 364.500 L 68.988 376.600 69.100 364.706 L 69.212 352.812 81.106 352.700 L 93.000 352.588 80.900 352.494 L 68.800 352.400 68.894 364.500 M217.700 352.699 C 220.945 352.766,226.255 352.766,229.500 352.699 C 232.745 352.632,230.090 352.577,223.600 352.577 C 217.110 352.577,214.455 352.632,217.700 352.699 M235.694 364.700 C 235.606 375.614,235.647 376.400,236.300 376.394 C 236.792 376.390,236.853 376.295,236.506 376.074 C 236.138 375.840,235.984 372.867,235.900 364.380 L 235.787 353.000 235.694 364.700 M283.111 388.032 L 283.223 399.988 271.311 400.100 L 259.400 400.212 271.500 400.306 L 283.600 400.400 283.600 388.424 C 283.600 381.837,283.465 376.364,283.300 376.261 C 283.135 376.159,283.050 381.456,283.111 388.032 M78.716 376.697 C 80.099 376.775,82.259 376.774,83.516 376.695 C 84.772 376.616,83.640 376.552,81.000 376.553 C 78.360 376.553,77.332 376.618,78.716 376.697 M288.316 376.697 C 289.699 376.775,291.859 376.774,293.116 376.695 C 294.372 376.616,293.240 376.552,290.600 376.553 C 287.960 376.553,286.932 376.618,288.316 376.697 M128.394 400.299 L 163.988 400.404 164.094 412.302 L 164.200 424.200 167.701 424.225 L 171.202 424.250 167.807 424.109 L 164.412 423.969 164.306 412.085 L 164.200 400.200 128.500 400.197 L 92.800 400.194 128.394 400.299 M182.912 424.295 C 183.964 424.377,185.584 424.376,186.512 424.292 C 187.440 424.208,186.580 424.141,184.600 424.142 C 182.620 424.143,181.860 424.212,182.912 424.295 M235.600 435.797 L 235.600 447.594 211.700 447.700 L 187.800 447.806 211.900 447.903 L 236.000 448.000 236.000 436.000 C 236.000 429.400,235.910 424.000,235.800 424.000 C 235.690 424.000,235.600 429.309,235.600 435.797 M240.716 424.297 C 242.099 424.375,244.259 424.374,245.516 424.295 C 246.772 424.216,245.640 424.152,243.000 424.153 C 240.360 424.153,239.332 424.218,240.716 424.297 " stroke="none" fill="#bcbcbc" fill-rule="evenodd"></path></g></svg>